# xmcd
#
# Track frame offsets:
#	150
#	15450
#	33312
#	51839
#	73757
#	88473
#	103466
#	121316
#	135641
#	149666
#	164966
#	182828
#	201355
#	223273
#	237989
#	252982
#	270832
#	285157
#
# Disc length: 3991 seconds
#
# Revision: 0
# Processed by: cddbd v1.5.1PL2 Copyright (c) Steve Scherf et al.
# Submitted via: audiograbber 1.83.01
#
DISCID=200f9512
DTITLE=Pop Hits Monthly Nashville - Phmn0212
DYEAR=2002
DGENRE=Karaoke
TTITLE0=Trace Adkins - Chrome
TTITLE1=Dixie Chicks - Landslide
TTITLE2=Tim Mcgraw - Red Ragtop
TTITLE3=Kenny Chesney - Lot Of Things Different
TTITLE4=George Strait - She'll Leave You With A Smile
TTITLE5=Carolyn Dawn Johnson - One Day Closer To You
TTITLE6=Kellie Coffey - At The End Of The Day
TTITLE7=Toby Keith - Who's Your Daddy
TTITLE8=Trick Pony - On A Mission
TTITLE9=Trace Adkins (Vocal) - Chrome
TTITLE10=Dixie Chicks (Vocal) - Landslide
TTITLE11=Tim Mcgraw (Vocal) - Red Ragtop
TTITLE12=Kenny Chesney (Vocal) - Lot Of Things Different
TTITLE13=George Strait (Vocal) - She'll Leave You With A Smile
TTITLE14=Carolyn Dawn Johnson (Vocal) - One Day Closer To You
TTITLE15=Kellie Coffey (Vocal) - At The End Of The Day
TTITLE16=Toby Keith (Vocal) - Who's Your Daddy
TTITLE17=Trick Pony (Vocal) - On A Mission
EXTD=
EXTT0=
EXTT1=
EXTT2=
EXTT3=
EXTT4=
EXTT5=
EXTT6=
EXTT7=
EXTT8=
EXTT9=
EXTT10=
EXTT11=
EXTT12=
EXTT13=
EXTT14=
EXTT15=
EXTT16=
EXTT17=
PLAYORDER=
